<?xml version="1.0" encoding="UTF-8"?>
<svg xmlns="http://www.w3.org/2000/svg" xmlns:xlink="http://www.w3.org/1999/xlink" viewBox="0 0 800 800">
  <defs>
    <style>
      .uuid-3700ae56-ccfd-4548-bc65-0c1d00cbec8e {
        fill: #dfb88b;
        font-family: CharlemagneStd-Regular, 'Charlemagne Std';
        font-size: 48px;
      }

      .uuid-7abae3eb-0986-4c3f-b308-fe7f384fe132 {
        fill: url(#uuid-3c23d678-3984-496e-9d90-f5e2111445e7);
      }

      .uuid-0695f0dc-b2bd-43e3-940a-11166dd7d883 {
        fill: url(#uuid-9e43d51d-cf4b-4ac6-ac04-69fe7dae145b);
      }

      .uuid-a949ae94-7b5c-4b70-8d59-f79d3626874e {
        fill: url(#uuid-74d2247e-2231-495e-a3b0-11603e0b9ffc);
      }

      .uuid-3eec8a25-8cb6-441c-872e-3961c27d6a80 {
        fill: url(#uuid-59200f16-697c-4efb-8efe-af938fd96fff);
      }

      .uuid-7fb3dbc3-68de-448d-bc20-a2bafd6a68f5 {
        fill: url(#uuid-939ebf4a-e3c1-4012-9a8d-0953c44e497c);
      }

      .uuid-ab58e403-334e-4abd-b3f8-e88299cca1bb {
        fill: url(#uuid-1ddadc70-7005-469e-88cc-1288e563abed);
      }

      .uuid-65c1f455-723d-4ccb-915f-bebf96518758 {
        fill: url(#uuid-86d49021-24f5-4eac-bcac-dc952205f46e);
      }

      .uuid-0dfd613e-37e5-473d-8b76-1156a7b6f5c3 {
        fill: url(#uuid-96c4340f-2608-48e3-bc4e-bf3e85dcb62f);
      }

      .uuid-4290e889-8b14-4757-8d98-00597f07ddfa {
        fill: url(#uuid-9168fd9b-8a3b-409b-9890-50c7ded4e312);
      }

      .uuid-133f0901-849a-4f0d-a571-9b09016975d9 {
        fill: url(#uuid-53975ac9-54c4-46f9-806a-f9b95ea05f82);
      }

      .uuid-eb05a15e-66b4-43f3-91d4-b65bd874f442 {
        fill: url(#uuid-36f48a0f-44f1-4fa8-a731-4cc0f1e386e2);
      }

      .uuid-5d0c06a5-8843-43b9-bb78-943970dfe6b1 {
        fill: url(#uuid-d238fc90-4b30-4cb1-ae06-23a432b02c5d);
      }

      .uuid-3ef01e66-cbff-4f83-ba70-bf6a16dbca3b {
        fill: url(#uuid-47fc229a-c4d8-496b-b92b-8bdf1cc20f41);
      }

      .uuid-386b882f-4723-4ea7-8eb8-ff84ac9235a4 {
        fill: url(#uuid-fb916217-200e-4d14-81f2-91d579f5e3ef);
      }

      .uuid-cab6b3d2-1e61-4403-a406-8bd63e3a0623 {
        fill: url(#uuid-da9ec11f-1dde-4096-965f-cad78f4f3c05);
      }

      .uuid-803880cf-3bad-4019-ba14-2c0af225cdbf {
        fill: url(#uuid-d83206be-d0b7-4501-9b42-a0fd132834bb);
      }

      .uuid-87161fd1-7b68-4051-b5c7-569f43b2d4dc {
        fill: url(#uuid-e1eac943-1586-432a-a4dc-06dfd6524a3b);
      }

      .uuid-587e437c-f759-4e6d-81f4-9e440ea39327 {
        fill: url(#uuid-88f1dbc8-9b70-4df7-ad8b-d1d170ed70d8);
      }

      .uuid-f00ca215-86af-4468-894b-825f27796925 {
        fill: url(#uuid-7583ede9-b361-430a-aa47-3a8eeb6cb87a);
      }

      .uuid-4b490cc6-4a34-4000-899b-2589d668d8b3 {
        fill: url(#uuid-82c245a1-4f61-4aca-ad84-a54509d2ffc7);
      }

      .uuid-90cc89b2-fa7d-43fe-84cd-da556c5a4f19 {
        fill: #1d2633;
      }

      .uuid-6a08cb0c-6d08-4fc4-90e3-10b6786be104 {
        fill: url(#uuid-45bf39bb-688b-410d-9818-07196b99fb26);
      }

      .uuid-52f7d5b4-d6a8-433b-b0be-b79dba78c512 {
        fill: url(#uuid-2f347be5-0601-49bf-970e-409c54d67dba);
      }

      .uuid-9addfe43-249e-4f41-b0ce-13e7e3a671d6 {
        fill: url(#uuid-0e1530b6-cc75-4254-ad9a-d386e506f8d4);
      }

      .uuid-b1b06f71-d146-4ac5-8b7a-e5e4530a19e9 {
        fill: url(#uuid-c09b19cc-f4e2-464a-ba1b-19124ebfd4b8);
      }
    </style>
    <linearGradient id="uuid-939ebf4a-e3c1-4012-9a8d-0953c44e497c" x1="104.72" y1="393.18" x2="695.28" y2="393.18" gradientUnits="userSpaceOnUse">
      <stop offset="0" stop-color="#d8c38f"/>
      <stop offset="1" stop-color="#bb9a65"/>
    </linearGradient>
    <linearGradient id="uuid-1ddadc70-7005-469e-88cc-1288e563abed" x1="273.11" y1="215.54" x2="265.88" y2="571.27" xlink:href="#uuid-939ebf4a-e3c1-4012-9a8d-0953c44e497c"/>
    <linearGradient id="uuid-9e43d51d-cf4b-4ac6-ac04-69fe7dae145b" x1="550.26" y1="221.17" x2="543.03" y2="576.91" xlink:href="#uuid-939ebf4a-e3c1-4012-9a8d-0953c44e497c"/>
    <linearGradient id="uuid-96c4340f-2608-48e3-bc4e-bf3e85dcb62f" x1="264.26" y1="215.36" x2="257.03" y2="571.09" xlink:href="#uuid-939ebf4a-e3c1-4012-9a8d-0953c44e497c"/>
    <linearGradient id="uuid-88f1dbc8-9b70-4df7-ad8b-d1d170ed70d8" x1="548.22" y1="221.13" x2="540.99" y2="576.86" xlink:href="#uuid-939ebf4a-e3c1-4012-9a8d-0953c44e497c"/>
    <linearGradient id="uuid-0e1530b6-cc75-4254-ad9a-d386e506f8d4" x1="261.94" y1="215.31" x2="254.71" y2="571.05" xlink:href="#uuid-939ebf4a-e3c1-4012-9a8d-0953c44e497c"/>
    <linearGradient id="uuid-3c23d678-3984-496e-9d90-f5e2111445e7" x1="272.83" y1="215.53" x2="265.6" y2="571.27" xlink:href="#uuid-939ebf4a-e3c1-4012-9a8d-0953c44e497c"/>
    <linearGradient id="uuid-59200f16-697c-4efb-8efe-af938fd96fff" x1="535.36" y1="220.87" x2="528.13" y2="576.6" xlink:href="#uuid-939ebf4a-e3c1-4012-9a8d-0953c44e497c"/>
    <linearGradient id="uuid-53975ac9-54c4-46f9-806a-f9b95ea05f82" x1="269.53" y1="215.47" x2="262.3" y2="571.2" xlink:href="#uuid-939ebf4a-e3c1-4012-9a8d-0953c44e497c"/>
    <linearGradient id="uuid-82c245a1-4f61-4aca-ad84-a54509d2ffc7" x1="539.29" y1="220.95" x2="532.06" y2="576.68" xlink:href="#uuid-939ebf4a-e3c1-4012-9a8d-0953c44e497c"/>
    <linearGradient id="uuid-86d49021-24f5-4eac-bcac-dc952205f46e" x1="261" y1="215.29" x2="253.77" y2="571.03" xlink:href="#uuid-939ebf4a-e3c1-4012-9a8d-0953c44e497c"/>
    <linearGradient id="uuid-74d2247e-2231-495e-a3b0-11603e0b9ffc" x1="550.39" y1="221.17" x2="543.16" y2="576.91" xlink:href="#uuid-939ebf4a-e3c1-4012-9a8d-0953c44e497c"/>
    <linearGradient id="uuid-2f347be5-0601-49bf-970e-409c54d67dba" x1="309.35" y1="216.27" x2="302.12" y2="572.01" xlink:href="#uuid-939ebf4a-e3c1-4012-9a8d-0953c44e497c"/>
    <linearGradient id="uuid-e1eac943-1586-432a-a4dc-06dfd6524a3b" x1="497.4" y1="220.1" x2="490.17" y2="575.83" xlink:href="#uuid-939ebf4a-e3c1-4012-9a8d-0953c44e497c"/>
    <linearGradient id="uuid-d83206be-d0b7-4501-9b42-a0fd132834bb" x1="533.43" y1="220.83" x2="526.2" y2="576.56" xlink:href="#uuid-939ebf4a-e3c1-4012-9a8d-0953c44e497c"/>
    <linearGradient id="uuid-47fc229a-c4d8-496b-b92b-8bdf1cc20f41" x1="407.44" y1="128.4" x2="398.17" y2="584.54" xlink:href="#uuid-939ebf4a-e3c1-4012-9a8d-0953c44e497c"/>
    <linearGradient id="uuid-da9ec11f-1dde-4096-965f-cad78f4f3c05" x1="423.92" y1="128.11" x2="414.65" y2="584.2" xlink:href="#uuid-939ebf4a-e3c1-4012-9a8d-0953c44e497c"/>
    <linearGradient id="uuid-9168fd9b-8a3b-409b-9890-50c7ded4e312" x1="390.08" y1="127.18" x2="380.81" y2="583.24" xlink:href="#uuid-939ebf4a-e3c1-4012-9a8d-0953c44e497c"/>
    <linearGradient id="uuid-c09b19cc-f4e2-464a-ba1b-19124ebfd4b8" x1="456.92" y1="128.98" x2="447.65" y2="585.18" xlink:href="#uuid-939ebf4a-e3c1-4012-9a8d-0953c44e497c"/>
    <linearGradient id="uuid-7583ede9-b361-430a-aa47-3a8eeb6cb87a" x1="357.08" y1="126.2" x2="347.81" y2="582.38" xlink:href="#uuid-939ebf4a-e3c1-4012-9a8d-0953c44e497c"/>
    <linearGradient id="uuid-36f48a0f-44f1-4fa8-a731-4cc0f1e386e2" x1="490.28" y1="129.87" x2="481.01" y2="586.17" xlink:href="#uuid-939ebf4a-e3c1-4012-9a8d-0953c44e497c"/>
    <linearGradient id="uuid-fb916217-200e-4d14-81f2-91d579f5e3ef" x1="323.64" y1="125.2" x2="314.37" y2="581.51" xlink:href="#uuid-939ebf4a-e3c1-4012-9a8d-0953c44e497c"/>
    <linearGradient id="uuid-45bf39bb-688b-410d-9818-07196b99fb26" x1="317.3" y1="223.68" x2="487.19" y2="223.68" xlink:href="#uuid-939ebf4a-e3c1-4012-9a8d-0953c44e497c"/>
    <linearGradient id="uuid-d238fc90-4b30-4cb1-ae06-23a432b02c5d" x1="349.87" y1="292.62" x2="453.78" y2="292.62" xlink:href="#uuid-939ebf4a-e3c1-4012-9a8d-0953c44e497c"/>
  </defs>
  <g id="uuid-46bf63db-4db9-41ea-9c97-55e91ad811db" data-name="Layer 2">
    <rect class="uuid-90cc89b2-fa7d-43fe-84cd-da556c5a4f19" width="800" height="800"/>
  </g>
  <g id="uuid-e650b331-6118-4e46-8e60-8eff3d25e225" data-name="Layer 1">
    <path class="uuid-7fb3dbc3-68de-448d-bc20-a2bafd6a68f5" d="M283.85,609.39c-10.68-6.46-20.97-12.67-31.09-19.18-2.09-1.34-4.16-2.62-6.58-.72-10.3,8.1-21.93,6.11-33.06,3.34-23.1-5.76-41.15-20.04-57.56-36.55-4.7-4.73-8.78-10.08-13.05-15.23-3.37-4.07-1.62-6.87,2.56-8.74,4.65-2.08,9.34-1.62,14.12-.24,17.25,4.97,31.5,15.78,47.08,24.01,2.95,1.56,5.85,3.24,9.13,4.33-7.54-8.47-15.47-16.38-22.34-25.25-1.79-2.32-3.87-3.13-6.99-2.37-8.67,2.12-16.39-.85-23.58-5.42-27.66-17.59-42.92-44.09-53.14-74.19-1.85-5.44,1.14-6.93,5.59-6.76,6.6.25,11.38,4.33,15.95,8.5,12.12,11.08,21.03,24.95,32.02,37.03,1.03,1.13,1.99,2.33,4.22,4.93-5.01-11.57-9.29-21.28-13.4-31.05-1.12-2.66-2.41-4.5-5.58-4.94-8.27-1.16-13.88-6.37-18.67-12.78-13.52-18.11-19.91-38.9-22.93-60.94-1.09-7.94-2.23-15.91-1.66-23.98.15-2.05-.6-4.63,1.74-5.78,2.69-1.32,5.26-.08,7.46,1.54,3.12,2.29,4.71,5.75,6.45,9.08,7.48,14.32,10.89,30.2,17.26,44.93.41.95.85,1.88,2.28,5.01-1.5-12.24-3.46-22.07-3.19-32.09.06-2.24-.42-4.18-2.82-5.24-7.14-3.15-9.49-9.78-11.63-16.47-7.42-23.2-5.2-46.54-.74-69.86,1.1-5.77,2.58-11.47,4.07-17.15.67-2.57,1.52-5.49,4.92-5.48,3.62,0,4.93,2.88,5.74,5.8,2.15,7.79,3.24,15.86,2.45,23.83-1.14,11.51-.58,23-.92,36.23,1.68-8.17,2.81-14.71,4.4-21.13,1.8-7.24,3.28-13.6-.73-21.4-4.15-8.08-1.34-17.9.4-26.84,4.78-24.44,16.68-45.57,31.05-65.49,1.09-1.52,2.23-3.39,4.42-2.81,2.8.74,2.15,3.35,2.23,5.38.22,5.79-2.05,10.98-4.09,16.22-4.11,10.59-8.21,21.19-10.97,32.34,4.16-7.12,8.26-14.29,12.51-21.36,2.71-4.51-.39-9.29,1.2-14.1,4.2-12.68,10.51-24.06,19.2-34.04,10.56-12.13,21.69-23.74,35.1-32.83,3.11-2.11,6.68-7.14,10.11-3.58,2.52,2.61-2.52,6.24-3.89,9.79,14-13.85,30.28-23.81,48.42-31.43,26.55-11.16,54.49-14.63,82.67-16.4,19.74-1.24,39.62-.08,59.43-.3,12.16-.14,24.35.55,35.54,5.12,9.38,3.83,19.25-.78,28.54,4.03,10.66,5.51,22.21,9.26,33.3,13.97,11.25,4.78,19.86,13.47,29.81,20.71,1.36-2.21-1.97-4.86.6-6.38,2.19-1.3,4.16.32,5.85,1.52,23.06,16.25,43.03,35.32,55.18,61.38,2.5,5.36,3.43,10.99,3.88,17.02.69,9.29,8.47,15.54,13.27,23.21-3.79-9.61-7.56-19.23-11.4-28.82-2-5-3.32-10.15-3.98-15.49-.28-2.26-.43-4.64,1.82-5.63,2.49-1.11,3.93,1.24,5.09,2.9,13.48,19.15,25.35,39.1,30.16,62.44,1.78,8.66,5.64,18.42,1.82,26.03-7.21,14.37.43,26.75,2.15,39.96,0-12.92,0-25.85,0-38.77,0-5.67.68-11.22,2.94-16.48.98-2.29,2.3-4.38,5.14-4.42,3.06-.04,3.96,2.45,4.74,4.71,3.74,10.95,5.2,22.41,6.89,33.76,2.66,17.91,2.12,35.76-3.15,53.26-2.03,6.75-4.48,13.31-11.26,16.86-2.27,1.19-2.64,3.05-2.87,5.29-.93,9.29-1.96,18.58-1.92,28.3,2.94-7.96,6.09-15.85,8.77-23.9,2.8-8.4,5.93-16.63,10.04-24.48,1.78-3.4,3.97-6.46,7.61-7.95,3.72-1.53,7.52-1.5,7.31,3.75-1.34,33.94-6.37,66.73-31,92.93-2.22,2.36-4.74,5.19-7.86,5.27-8.9.23-11.12,6.54-13.73,13.14-2.75,6.95-6.09,13.66-8.72,20.88,6.55-4.74,10.99-11.49,16.04-17.61,5.97-7.23,11.75-14.63,18.71-20.94,2.95-2.67,6.18-5.16,9.64-7.12,3.58-2.03,8.01-3.06,11.38-.19,3.34,2.84.53,6.57-.63,9.62-9.92,26.23-24.44,53.55-49.66,67.88-6.28,3.56-12.93,7.02-20.14,7.35-3.56.17-7.31-.41-10.56,1.08-2.19,1-3.88,2.84-5.46,4.66-5.43,6.28-10.37,12.98-14.76,20.04,7.75-12.47,59.53-42.56,70.08-23.01,1.95,3.61-1.51,5.94-3.41,8.25-18.73,22.65-40.11,41.76-69.49,49.28-10.74,2.75-21.72,3.79-31.75-2.94-2.09-1.4-3.97-1.3-5.93.04-10.11,6.92-20.73,12.99-31.37,19.25,16.8-2.89,33.59-5.86,50.41-8.64,10-1.65,19.85-1.06,28.82,4.16,6.55,3.81,6.87,8.26.57,12.14-23.98,14.77-49.14,26.23-78.17,25.73-14.92-.26-28.91-2.86-38.02-16.49-1.82-2.72-3.99-1.91-6.36-1.34-12.33,2.95-24.68,5.85-37.12,8.79,15.08,3.92,30.56,5.28,45.81,7.98,8.76,1.55,17.17,4.08,25.09,8.17,5.63,2.9,10.09,6.98,12.91,12.73,1.92,3.9,1.24,6.96-3.22,8.05-30.91,7.59-61.72,10.68-91.94-2.96-10.77-4.86-19.62-11.94-25.13-23.24-18.19,28.14-46.17,32.28-75.87,32.33-13.2.02-26.12-2.03-38.87-5.29-8.38-2.14-9.61-5.31-4.37-12.34,8.71-11.7,22.03-14.68,35.17-17.24,15.72-3.05,31.61-5.24,48.46-7.97-13.56-3.26-25.97-6.14-38.3-9.28-3.15-.8-5.5-1.07-7.58,2.11-7.48,11.42-19.15,14.98-31.82,15.8-31.39,2.03-58.7-9.61-84.38-26.12-5.61-3.61-5.39-7.39.38-11.11,9.33-6.01,19.73-6.3,30.25-4.58,16.85,2.75,33.65,5.76,50.47,8.66ZM292.01,594.69c-2.16-1.85-4.49-3.54-6.46-5.57-9.39-9.7-17.43-20.34-21.78-33.33-2.7-8.08-3.64-16.21.39-24.19,4.11-8.12,7.82-8.92,13.78-2.3,11.27,12.54,22.59,25.07,33.14,38.21,8.63,10.73,15.37,22.66,14.9,37.24-.09,2.64.6,5,3.31,5.78,11.46,3.3,23,6.26,35.17,6.5-2.65-2.37-5.58-4.05-8.44-5.84-11.71-7.29-22.37-15.74-29.38-27.93-4.81-8.38-7.2-17.17-4.29-26.92,1.88-6.32,4.88-8.58,10.93-4.52,4.44,2.98,9.19,5.52,13.58,8.57,13.83,9.61,28.43,18.16,40.13,30.63,5.24,5.58,8.46,12.49,13.25,19.75,3.94-8.85,8.39-15.81,14.35-21.68,15.8-15.55,35.01-26.35,53.46-38.2,4.25-2.73,6.98-1.01,8.59,3.39,4.15,11.35,1.43,21.63-4.98,31.22-7.91,11.83-18.61,20.58-30.96,27.46-2.13,1.19-4.2,2.5-6.29,3.75,12.58.2,24.2-2.83,35.83-5.83,3.27-.84,3.68-3.11,3.53-6.17-.42-8.81,2.1-17.05,6.51-24.51,11.82-19.99,28.04-36.4,43.96-53.03,3.62-3.79,6.42-2.43,9.18,1.17,5.37,7.01,5.6,14.86,3.76,22.95-2.67,11.79-9.03,21.66-16.72,30.75-3.75,4.44-7.68,8.74-11.53,13.1,10.48-3.45,19.18-9.23,28.23-14.41,4.73-2.7,6.28-5.76,4.2-11.1-1.87-4.81-1.34-10.03-.29-15.07,5.17-24.84,19.64-45.55,30.38-67.9,2.71-5.64,7.35-4.65,11.15-.74,5.87,6.03,7.04,13.69,6.25,21.65-.69,6.93-2.18,13.76-4.87,20.23-3.07,7.36-6.32,14.65-9.5,21.97,7.27-5.94,13.31-12.72,19.72-19.12,4.19-4.18,5.2-7.87,1.57-13.16-3.24-4.72-3.73-10.89-3.29-16.31,1.95-23.78,7.6-46.95,12.98-70.13,1.47-6.34,5.53-6.48,10.33-3.8,5.07,2.83,7.31,7.78,8.55,13.06,1.85,7.86,2.45,15.85,1.27,23.91-1.18,8.08-2.23,16.17-3.62,26.33,6.37-10.68,10.39-20.19,14.08-29.85.99-2.6.25-4.67-1.63-6.54-5.83-5.81-7.84-13.34-8.88-21.08-2.95-22.02-1.2-44.37-4.44-66.4-.38-2.61-.15-5.67,2.66-7.08,3.36-1.68,6.35.1,8.8,2.22,8.43,7.28,10.77,17.5,13.17,27.74,1.88,8.03,1.16,16.33,2.98,24.45,2.63-9.51,4.17-19.08,4.26-28.86.02-1.96-.32-3.84-2.01-5.01-10.24-7.12-13.51-18.25-16.85-29.31-5.33-17.67-10.56-35.36-16.93-52.71-2.91-7.92-.25-10.33,8.05-8.47.89.2,2.02,1.06,2.43-.49-11.33-19.55-22.59-39-36.3-56.89-1.73-2.26-3.92-4.84-2.4-8.02,1.53-3.22,4.99-1.11,8.22-1.58-17.28-17.44-34.28-33.69-52.58-48.56-1.6-1.3-3.89-2.39-3.61-4.92.33-3.04,3.64-1.04,4.87-2.35-23.17-15.56-48.28-27.81-73.29-39.47-21.07-9.82-45.03-14.65-68.67-14.69-29.52-.05-58.2,5.83-85.1,19.03-22.35,10.96-44.13,22.95-66.08,35.06,2.11,1.04,5.42-1.02,6.18,2.14.58,2.41-1.91,3.57-3.49,4.92-1.63,1.39-3.38,2.64-5.01,4.02-15.87,13.46-31.1,27.6-46.27,43.55,9.74,1.55,7.92,6.11,4.15,10.81-15.51,19.31-26.18,41.71-39.96,62.15,1.44-.87,2.57-2,3.83-2.97,2.86-2.21,5.98-4.11,9.47-1.61,3.44,2.47,1.84,5.93.7,8.79-7.93,19.93-12.7,40.88-19.79,61.07-2.78,7.9-6.04,15.54-13.76,20.08-2.45,1.44-2.98,3.74-2.66,6.23,1.39,10.79,1.88,21.73,5.4,33.94-.34-12.77.97-23.67,3.34-34.39,1.85-8.38,4.37-16.62,11.24-22.62,2.68-2.34,5.47-4.93,9.22-3.45,3.82,1.5,3.12,5.41,2.81,8.45-1.7,16.53-1.27,33.15-2.47,49.67-.98,13.41-.55,27.63-11.87,37.99-1.09,1-.85,2.48-.43,3.79,3.1,9.65,7.84,18.47,13.07,27.1-1.61-12.7-3.18-25.15-2.4-37.77.44-7.06,1.73-13.93,7-19.16,6.23-6.18,11.64-4.91,13.56,3.51,3.8,16.69,7.45,33.42,10.54,50.25,2.37,12.9,4.55,26.05-3.36,38.16-1.18,1.81-1.08,3.52.24,5.18,7.15,9.02,14.69,17.64,25.22,26.48-3.92-8.17-6.94-14.14-9.68-20.23-2.75-6.12-4.76-12.54-5.82-19.16-1.42-8.82-2.18-17.68,3.45-25.53,5.3-7.38,10.4-7.27,14.52.73,7.85,15.22,15.66,30.49,22.72,46.08,5.44,12,9.32,24.6,5.1,38.06-.9,2.87.48,4.58,2.67,6,9.81,6.38,19.77,12.47,31.8,15.63Z"/>
    <g>
      <path class="uuid-ab58e403-334e-4abd-b3f8-e88299cca1bb" d="M281.28,240.11v17.8h-17.83c0-5.26-.09-10.39.1-15.5.03-.79,1.31-2.17,2.06-2.2,5.12-.2,10.25-.1,15.68-.1Z"/>
      <g>
        <path class="uuid-0695f0dc-b2bd-43e3-940a-11166dd7d883" d="M592.43,377.13c-2.71,52.63-41.55,110.73-93.47,137.37,1.59-45.92,3.17-91.54,4.75-137.37h88.72Z"/>
        <path class="uuid-0dfd613e-37e5-473d-8b76-1156a7b6f5c3" d="M212.65,377.1h89c1.59,45.81,3.18,91.44,4.82,138.71-11.43-7.98-22.57-14.31-31.96-22.63-18.3-16.22-34.13-34.83-45.08-56.9-9.15-18.42-14.9-38.02-16.77-59.18Z"/>
        <path class="uuid-587e437c-f759-4e6d-81f4-9e440ea39327" d="M498,314.68c2.5,0,3.99,0,5.48,0,26.59,0,53.17.05,79.76-.08,3.33-.02,4.65.93,5.42,4.27,3.24,14.09,5.67,28.23,4.98,43.13h-89.68c-1.97-15.62-3.91-31.09-5.96-47.32ZM541.34,347.45v-18.85h-6.5v18.85h6.5ZM555.07,328.51v18.83h6.43v-18.83h-6.43ZM520.27,347.46v-18.86h-5.61v18.86h5.61ZM581.84,328.57h-5.67v18.76h5.67v-18.76Z"/>
        <path class="uuid-9addfe43-249e-4f41-b0ce-13e7e3a671d6" d="M307.4,314.68c-2.05,16.14-4.03,31.63-6.03,47.41h-89.63c-.55-11.81.76-23.2,3.1-34.52.06-.3.2-.57.28-.87,1.07-3.91,1-9.18,3.55-11.32,2.37-1.98,7.54-.68,11.48-.69,23.74-.03,47.48-.02,71.22-.03,1.65,0,3.31,0,6.04,0ZM270.57,347.46v-18.9h-6.57v18.9h6.57ZM290.78,347.44v-18.9h-5.64v18.9h5.64ZM243.79,347.36h6.59v-18.81h-6.59v18.81ZM229.18,328.67h-5.5v18.79h5.5v-18.79Z"/>
        <path class="uuid-7abae3eb-0986-4c3f-b308-fe7f384fe132" d="M317.56,260.19v32.89h-92.61c3.89-7.31,7.49-14.19,11.21-21.01,1.09-1.99,3.02-3.65,3.65-5.73,1.56-5.15,4.74-6.35,9.87-6.28,21.11.29,42.23.13,63.35.13,1.34,0,2.69,0,4.54,0Z"/>
        <path class="uuid-3eec8a25-8cb6-441c-872e-3961c27d6a80" d="M580.39,293.32h-92.34v-32.83c1.26-.09,2.7-.29,4.14-.29,21.91-.01,43.82.08,65.73-.07,3.62-.02,5.45,1.3,6.94,4.46,1.53,3.26,4,6.06,5.7,9.26,3.26,6.12,6.27,12.38,9.83,19.47Z"/>
        <path class="uuid-133f0901-849a-4f0d-a571-9b09016975d9" d="M317.4,295.52c-3.44,5.41-6.52,10.43-9.82,15.3-.53.78-2.01,1.28-3.05,1.29-28.27.05-56.53.02-84.8-.01-.29,0-.57-.16-1.67-.5,1.94-5.17,3.78-10.34,5.91-15.39.31-.75,1.98-1.31,3.02-1.31,29.48-.04,58.96,0,88.45.03.41,0,.82.24,1.96.6Z"/>
        <path class="uuid-4b490cc6-4a34-4000-899b-2589d668d8b3" d="M487.64,295.09c2.37-.11,3.83-.24,5.29-.24,27.84-.01,55.68.05,83.52-.09,3.43-.02,5.24.88,6.23,4.26,1.23,4.18,3.02,8.2,4.9,13.17-2.47,0-4.2,0-5.94,0-26.32,0-52.64-.03-78.96.08-3.1.01-4.82-.9-6.34-3.73-2.41-4.48-5.51-8.58-8.72-13.45Z"/>
        <path class="uuid-65c1f455-723d-4ccb-915f-bebf96518758" d="M304.07,365.04v9.23h-91.94c-.15-3.01-.3-5.96-.47-9.23h92.41Z"/>
        <path class="uuid-a949ae94-7b5c-4b70-8d59-f79d3626874e" d="M501.27,374.66v-9.61h92.23c0,2.01-.08,4.05.02,6.1.13,2.82-1.23,3.64-3.89,3.57-5.47-.15-10.95-.05-16.42-.05-22.05,0-44.1,0-66.14,0-1.79,0-3.59,0-5.8,0Z"/>
        <path class="uuid-52f7d5b4-d6a8-433b-b0be-b79dba78c512" d="M317.49,240.49v17.42h-17.6v-17.42h17.6Z"/>
        <path class="uuid-87161fd1-7b68-4051-b5c7-569f43b2d4dc" d="M505.7,240.42v17.4h-17.76v-17.4h17.76Z"/>
        <path class="uuid-803880cf-3bad-4019-ba14-2c0af225cdbf" d="M524.1,257.79v-17.39h17.5v17.39h-17.5Z"/>
        <g>
          <path class="uuid-3ef01e66-cbff-4f83-ba70-bf6a16dbca3b" d="M365.34,535.57c-14.61-5.72-28.39-10.71-41.65-19.01-7.94-4.97-9.43-11.36-9.54-21.96-.45-42.94-1.47-85.87-2.27-128.8-.01-.57.1-1.15.2-2.3h180.47c0,8.78.12,17.19-.02,25.58-.65,38.23-1.43,76.46-1.99,114.7-.07,4.95-1.38,7.01-4.56,9.4-13.06,9.82-27.14,15.36-41.33,20.62-1.45.54-2.96.75-4.93,1.23,0-17.86.07-35.08-.03-52.29-.06-9.71-.86-19.32-5.65-27.1-11.09-18-25.15-23.07-41.6-18.59-8.98,2.44-15.66,9.46-21.41,18.62-4.75,7.56-5.59,16.97-5.66,26.49-.11,15.3-.03,30.6-.03,45.9,0,2.12,0,4.25,0,7.51Z"/>
          <path class="uuid-cab6b3d2-1e61-4403-a406-8bd63e3a0623" d="M411.29,337.92h16.29v21.57h-16.29v-21.57Z"/>
          <path class="uuid-4290e889-8b14-4757-8d98-00597f07ddfa" d="M393.78,359.63h-16.41v-21.47h16.41v21.47Z"/>
          <path class="uuid-b1b06f71-d146-4ac5-8b7a-e5e4530a19e9" d="M460.25,338v21.57h-15.59v-21.57h15.59Z"/>
          <path class="uuid-f00ca215-86af-4468-894b-825f27796925" d="M344.73,337.94h15.65v21.53h-15.65v-21.53Z"/>
          <path class="uuid-eb05a15e-66b4-43f3-91d4-b65bd874f442" d="M493.29,338.01v21.54h-14.91v-21.54h14.91Z"/>
          <path class="uuid-386b882f-4723-4ea7-8eb8-ff84ac9235a4" d="M311.61,359.59v-21.61h14.98v21.61h-14.98Z"/>
        </g>
      </g>
    </g>
    <g>
      <path class="uuid-6a08cb0c-6d08-4fc4-90e3-10b6786be104" d="M330.51,218.28c4.14,7.34,7.76,15.05,12.57,21.92,4.26,6.09,9.49,7.2,14.47,4.9,5.07-2.34,7.67-7.9,6.89-14.98-3.97,1.4-7.76,1.61-9.77-2.95-1.59-3.59.02-6.38,4.78-9.09-.57-5.4,1.21-8.5,5.25-9.15,3.98-.63,6.49,1.88,7.5,7.74,4.08.6,7.52,2.58,6.89,7.3-.61,4.62-4.23,6.07-8.98,5.25,1.54,5.09,3.23,9.44,7.72,11.67,5.28,2.62,10.79.09,14.08-6.1,3.75-7.06,6.7-24.34,5.91-35.16-2.73,1.61-5.23,3.34-7.94,4.63-5.57,2.67-9.72.61-11.13-5.36-.31-1.34-.76-2.91-.35-4.11,1.13-3.36,1.84-8.1,4.28-9.42,2.41-1.31,6.75.77,10.18,1.61,1.08.26,1.98,1.32,3.33,2.27-2.06-3.72-4.15-6.9-5.64-10.34-2.26-5.21-.44-9,4.79-11.1,4.52-1.82,9-1.88,13.54-.07,5.58,2.23,7.35,5.81,4.98,11.37-1.41,3.32-3.52,6.33-5.39,9.61,4.96-2.29,9.61-7.72,15.25-2.15,3.5,3.45,3.18,12.79.04,16.58-2.95,3.57-6.49,2.87-17.46-3.68.48,12.54,1.11,24.57,6.55,35.77,1.96,4.03,5.15,6.52,9.87,6.46,4.61-.06,7.32-2.87,9.29-6.61.85-1.62,1.52-3.32,2.51-5.5-4.93.07-9.05-1.12-9.24-6.3-.15-4.15,2.9-6.2,6.84-6.46,1.14-6.03,3.77-8.62,7.81-7.91,3.81.67,5.52,3.71,5.02,8.92,4.9,3.05,6.54,6.15,4.71,9.55-2.16,4.03-5.58,4.44-9.48,2.63-1.29,6.26,1.31,12.38,6.28,14.91,4.81,2.45,10.39,1.53,14.3-4.03,4.98-7.09,8.84-14.95,13.79-23.52-7.75.54-14.91,7.03-19.27-2.23-2.15-4.58.56-12.34,4.7-14.95,6.68-4.22,9.43,2.38,13.66,5.35-.93-5.86-5.12-12,.18-17.1,3.66-3.52,8.65-1.92,13.33-.47-10.05,30.84-20.04,61.48-30.26,92.83-36.32-9.35-72.68-9.67-109.29.13-10.18-31.17-20.22-61.92-30.33-92.89,4.68-1.56,9.61-3.06,13.3.47,5.17,4.95,1.27,10.95.27,16.74,4.42-2.82,7.45-9.6,14.06-4.78,4.28,3.11,6.14,11.69,3.78,16.11-2.07,3.88-4.57,4-16.85.83-.45.28-.91.57-1.36.85Z"/>
      <path class="uuid-5d0c06a5-8843-43b9-bb78-943970dfe6b1" d="M449.54,303.5c-31.75-9.96-63.04-9.9-94.6-.03-1.64-5-3.2-9.79-5.07-15.5,9.29-1.64,18.11-3.62,27.05-4.7,23.96-2.89,47.78-1.77,71.36,3.57,6.3,1.43,6.32,1.37,4.32,7.5-.96,2.92-1.94,5.82-3.06,9.16Z"/>
    </g>
    <g>
      <text class="uuid-3700ae56-ccfd-4548-bc65-0c1d00cbec8e" transform="translate(205.3 135.38) rotate(-28.47)"><tspan x="0" y="0">D</tspan></text>
      <text class="uuid-3700ae56-ccfd-4548-bc65-0c1d00cbec8e" transform="translate(256.47 108.53) rotate(-21.16)"><tspan x="0" y="0">O</tspan></text>
      <text class="uuid-3700ae56-ccfd-4548-bc65-0c1d00cbec8e" transform="translate(309.96 88.49) rotate(-12.52)"><tspan x="0" y="0">M</tspan></text>
      <text class="uuid-3700ae56-ccfd-4548-bc65-0c1d00cbec8e" transform="translate(372.45 76.57) rotate(-4.53)"><tspan x="0" y="0">I</tspan></text>
      <text class="uuid-3700ae56-ccfd-4548-bc65-0c1d00cbec8e" transform="translate(405.79 73.95) rotate(3.78)"><tspan x="0" y="0">N</tspan></text>
      <text class="uuid-3700ae56-ccfd-4548-bc65-0c1d00cbec8e" transform="translate(463.66 79.71) rotate(12.5)"><tspan x="0" y="0">I</tspan></text>
      <text class="uuid-3700ae56-ccfd-4548-bc65-0c1d00cbec8e" transform="translate(495.34 86.76) rotate(20.96)"><tspan x="0" y="0">O</tspan></text>
      <text class="uuid-3700ae56-ccfd-4548-bc65-0c1d00cbec8e" transform="translate(548.06 108.2) rotate(31.03)"><tspan x="0" y="0">N</tspan></text>
      <text class="uuid-3700ae56-ccfd-4548-bc65-0c1d00cbec8e" transform="translate(597.2 139.78) rotate(37.73)"><tspan x="0" y="0"> </tspan></text>
    </g>
    <g>
      <text class="uuid-3700ae56-ccfd-4548-bc65-0c1d00cbec8e" transform="translate(203.7 689.05) rotate(33.2)"><tspan x="0" y="0">A</tspan></text>
      <text class="uuid-3700ae56-ccfd-4548-bc65-0c1d00cbec8e" transform="translate(247.85 716.18) rotate(25.05)"><tspan x="0" y="0">S</tspan></text>
      <text class="uuid-3700ae56-ccfd-4548-bc65-0c1d00cbec8e" transform="translate(287.96 733.61) rotate(16.95)"><tspan x="0" y="0">S</tspan></text>
      <text class="uuid-3700ae56-ccfd-4548-bc65-0c1d00cbec8e" transform="translate(330.03 745) rotate(9.2)"><tspan x="0" y="0">I</tspan></text>
      <text class="uuid-3700ae56-ccfd-4548-bc65-0c1d00cbec8e" transform="translate(367.03 750.02) rotate(1.56)"><tspan x="0" y="0">S</tspan></text>
      <text class="uuid-3700ae56-ccfd-4548-bc65-0c1d00cbec8e" transform="translate(410.96 750.19) rotate(-7.02)"><tspan x="0" y="0">T</tspan></text>
      <text class="uuid-3700ae56-ccfd-4548-bc65-0c1d00cbec8e" transform="translate(461.46 742.75) rotate(-15)"><tspan x="0" y="0">A</tspan></text>
      <text class="uuid-3700ae56-ccfd-4548-bc65-0c1d00cbec8e" transform="translate(510.72 728.61) rotate(-22.88)"><tspan x="0" y="0">N</tspan></text>
      <text class="uuid-3700ae56-ccfd-4548-bc65-0c1d00cbec8e" transform="translate(567.29 703.23) rotate(-29.99)"><tspan x="0" y="0">T</tspan></text>
    </g>
  </g>
</svg>